
    <svg width="256" height="256" viewBox="0 0 256 256" xmlns="http://www.w3.org/2000/svg">
      <circle cx="128" cy="128" r="128" fill="rgb(255,255,255)"/>
      <polyline points="0,128 4,131 8,135 12,139 16,143 20,146 24,150 28,153 32,156 36,158 40,161 44,163 48,164 52,166 56,167 60,167 64,168 68,167 72,167 76,166 80,164 84,163 88,161 92,158 96,156 100,153 104,150 108,146 112,143 116,139 120,135 124,131 128,128 132,125 136,121 140,117 144,113 148,110 152,106 156,103 160,100 164,98 168,95 172,93 176,92 180,90 184,89 188,89 192,88 196,89 200,89 204,90 208,92 212,93 216,95 220,98 224,100 228,103 232,106 236,110 240,113 244,117 248,121 252,125" fill="none" stroke="rgb(180,180,180)" stroke-width="16" stroke-linecap="round" stroke-linejoin="round"/>
    </svg>
    